<?xml version="1.0" standalone="yes"?>
<svg xmlns="http://www.w3.org/2000/svg" width="256" height="256">
<path style="fill:#ffffff; stroke:none;" d="M0 0L0 256L256 256L256 0L0 0z"/>
<path style="fill:#bfbfbf; stroke:none;" d="M127.667 30.3333C127.222 30.7777 128.278 30.7222 128.333 30.6667C128.778 30.2222 127.722 30.2778 127.667 30.3333z"/>
<path style="fill:#8f8f8f; stroke:none;" d="M125 31L126 32L125 31z"/>
<path style="fill:#000000; stroke:none;" d="M126 31.7431C118.447 33.7358 110.703 40.0526 104 43.9892C90.7388 51.7778 77.3341 59.3367 64 67C58.6959 70.0483 47.0242 74.1816 44.6034 80.1049C42.0896 86.2556 44 96.4068 44 103L44 154C44 160.08 41.6278 172.652 45.6034 177.61C48.7999 181.597 55.6085 184.217 60 186.719L91 204.579L118 220.15C121.572 222.188 125.66 225.402 130 224.257C136.601 222.515 143.101 217.075 149 213.719C163.059 205.721 177.012 197.543 191 189.424C196.507 186.228 208.877 182.061 211.397 175.895C213.91 169.744 212 159.593 212 153L212 102C212 95.9202 214.372 83.348 210.397 78.3897C207.176 74.373 200.406 71.9474 196 69.4213C185.634 63.4786 175.334 57.4219 165 51.4244C156.016 46.2101 147.01 41.0187 138 35.8503C134.436 33.806 130.334 30.5997 126 31.7431z"/>
<path style="fill:#8d8d8d; stroke:none;" d="M130 31L131 32L130 31z"/>
<path style="fill:#acacac; stroke:none;" d="M123 32L124 33L123 32z"/>
<path style="fill:#a9a9a9; stroke:none;" d="M132 32L133 33L132 32z"/>
<path style="fill:#5d5d5d; stroke:none;" d="M122 33L123 34L122 33z"/>
<path style="fill:#5a5a5a; stroke:none;" d="M133 33L134 34L133 33z"/>
<path style="fill:#7a7a7a; stroke:none;" d="M120 34L121 35L120 34z"/>
<path style="fill:#767676; stroke:none;" d="M135 34L136 35L135 34z"/>
<path style="fill:#979797; stroke:none;" d="M118 35L119 36L118 35z"/>
<path style="fill:#939393; stroke:none;" d="M137 35L138 36L137 35z"/>
<path style="fill:#b3b3b3; stroke:none;" d="M116 36L117 37L116 36z"/>
<path style="fill:#646464; stroke:none;" d="M115 37L116 38L115 37z"/>
<path style="fill:#616161; stroke:none;" d="M140 37L141 38L140 37z"/>
<path style="fill:#818181; stroke:none;" d="M113 38L114 39L113 38z"/>
<path style="fill:#7e7e7e; stroke:none;" d="M142 38L143 39L142 38z"/>
<path style="fill:#9f9f9f; stroke:none;" d="M111 39L112 40L111 39z"/>
<path style="fill:#4b4b4b; stroke:none;" d="M126 39L127 40L126 39z"/>
<path style="fill:#b6b6b6; stroke:none;" d="M127.667 39.3333C127.222 39.7778 128.278 39.7222 128.333 39.6667C128.778 39.2222 127.722 39.2778 127.667 39.3333z"/>
<path style="fill:#9c9c9c; stroke:none;" d="M144 39L145 40L144 39z"/>
<path style="fill:#9a9a9a; stroke:none;" d="M125 40L126 41L125 40z"/>
<path style="fill:#ffffff; stroke:none;" d="M111 49L111 51C127.334 61.7739 144.996 71.0308 162 80.7191C167.343 83.7636 175.757 91.0658 182 91.1883C187.708 91.3002 195.271 84.8943 200 82L200 80C182.725 72.5563 166.186 61.1949 150 51.6034C144.154 48.139 134.968 40.4491 128 40.4267C122.177 40.408 115.644 45.9272 111 49z"/>
<path style="fill:#9e9e9e; stroke:none;" d="M130 40L131 41L130 40z"/>
<path style="fill:#4d4d4d; stroke:none;" d="M145 40L146 41L145 40z"/>
<path style="fill:#6c6c6c; stroke:none;" d="M108 41L109 42L108 41z"/>
<path style="fill:#7d7d7d; stroke:none;" d="M123 41L124 42L123 41z"/>
<path style="fill:#808080; stroke:none;" d="M132 41L133 42L132 41z"/>
<path style="fill:#696969; stroke:none;" d="M147 41L148 42L147 41z"/>
<path style="fill:#8a8a8a; stroke:none;" d="M106 42L107 43L106 42z"/>
<path style="fill:#5f5f5f; stroke:none;" d="M121 42L122 43L121 42z"/>
<path style="fill:#636363; stroke:none;" d="M134 42L135 43L134 42z"/>
<path style="fill:#878787; stroke:none;" d="M149 42L150 43L149 42z"/>
<path style="fill:#a7a7a7; stroke:none;" d="M104 43L105 44L104 43z"/>
<path style="fill:#b1b1b1; stroke:none;" d="M135 43L136 44L135 43z"/>
<path style="fill:#a4a4a4; stroke:none;" d="M151 43L152 44L151 43z"/>
<path style="fill:#575757; stroke:none;" d="M103 44L104 45L103 44z"/>
<path style="fill:#929292; stroke:none;" d="M118 44L119 45L118 44z"/>
<path style="fill:#959595; stroke:none;" d="M137 44L138 45L137 44z"/>
<path style="fill:#545454; stroke:none;" d="M152 44L153 45L152 44z"/>
<path style="fill:#747474; stroke:none;" d="M101 45L102 46L101 45z"/>
<path style="fill:#757575; stroke:none;" d="M116 45L117 46L116 45z"/>
<path style="fill:#797979; stroke:none;" d="M139 45L140 46L139 45z"/>
<path style="fill:#707070; stroke:none;" d="M154 45L155 46L154 45z"/>
<path style="fill:#919191; stroke:none;" d="M99 46L100 47L99 46z"/>
<path style="fill:#595959; stroke:none;" d="M114 46L115 47L114 46z"/>
<path style="fill:#5c5c5c; stroke:none;" d="M141 46L142 47L141 46z"/>
<path style="fill:#8d8d8d; stroke:none;" d="M156 46L157 47L156 46z"/>
<path style="fill:#aeaeae; stroke:none;" d="M97 47L98 48L97 47z"/>
<path style="fill:#a8a8a8; stroke:none;" d="M113 47L114 48L113 47z"/>
<path style="fill:#ababab; stroke:none;" d="M142 47L143 48L142 47z"/>
<path style="fill:#5e5e5e; stroke:none;" d="M96 48L97 49L96 48z"/>
<path style="fill:#8b8b8b; stroke:none;" d="M111 48L112 49L111 48z"/>
<path style="fill:#8e8e8e; stroke:none;" d="M144 48L145 49L144 48z"/>
<path style="fill:#5b5b5b; stroke:none;" d="M159 48L160 49L159 48z"/>
<path style="fill:#7c7c7c; stroke:none;" d="M94 49L95 50L94 49z"/>
<path style="fill:#585858; stroke:none;" d="M109.333 49.6667C109.278 49.7222 109.222 50.7778 109.667 50.3333C109.722 50.2777 109.778 49.2223 109.333 49.6667z"/>
<path style="fill:#c8c8c8; stroke:none;" d="M110.333 49.6667C110.278 49.7222 110.222 50.7778 110.667 50.3333C110.722 50.2777 110.778 49.2223 110.333 49.6667z"/>
<path style="fill:#707070; stroke:none;" d="M146 49L147 50L146 49z"/>
<path style="fill:#787878; stroke:none;" d="M161 49L162 50L161 49z"/>
<path style="fill:#999999; stroke:none;" d="M92 50L93 51L92 50z"/>
<path style="fill:#969696; stroke:none;" d="M163 50L164 51L163 50z"/>
<path style="fill:#b5b5b5; stroke:none;" d="M90 51L91 52L90 51z"/>
<path style="fill:#7a7a7a; stroke:none;" d="M111 51L112 52L111 51z"/>
<path style="fill:#a3a3a3; stroke:none;" d="M149 51L150 52L149 51z"/>
<path style="fill:#676767; stroke:none;" d="M89 52L90 53L89 52z"/>
<path style="fill:#979797; stroke:none;" d="M113 52L114 53L113 52z"/>
<path style="fill:#868686; stroke:none;" d="M151 52L152 53L151 52z"/>
<path style="fill:#636363; stroke:none;" d="M166 52L167 53L166 52z"/>
<path style="fill:#848484; stroke:none;" d="M87 53L88 54L87 53z"/>
<path style="fill:#494949; stroke:none;" d="M114 53L115 54L114 53z"/>
<path style="fill:#686868; stroke:none;" d="M153 53L154 54L153 53z"/>
<path style="fill:#818181; stroke:none;" d="M168 53L169 54L168 53z"/>
<path style="fill:#a0a0a0; stroke:none;" d="M85 54L86 55L85 54z"/>
<path style="fill:#717171; stroke:none;" d="M100.667 54.3333C100.222 54.7778 101.278 54.7222 101.333 54.6667C101.778 54.2223 100.722 54.2778 100.667 54.3333z"/>
<path style="fill:#666666; stroke:none;" d="M116 54L117 55L116 54z"/>
<path style="fill:#b6b6b6; stroke:none;" d="M154 54L155 55L154 54z"/>
<path style="fill:#9e9e9e; stroke:none;" d="M170 54L171 55L170 54z"/>
<path style="fill:#989898; stroke:none;" d="M99 55L100 56L99 55z"/>
<path style="fill:#ffffff; stroke:none;" d="M81 66L81 68C98.1644 76.0233 114.689 86.9377 131 96.6034C136.846 100.068 145.967 107.844 153 107.654C159.907 107.468 168.273 100.505 174 97C168.75 92.4382 161.985 89.5045 156 85.9892C144.378 79.1635 132.715 72.3833 121 65.7191C115.661 62.6822 107.326 55.513 101 55.6651C94.5654 55.8199 86.4236 62.8015 81 66z"/>
<path style="fill:#676767; stroke:none;" d="M103 55L104 56L103 55z"/>
<path style="fill:#828282; stroke:none;" d="M118 55L119 56L118 55z"/>
<path style="fill:#9b9b9b; stroke:none;" d="M156 55L157 56L156 55z"/>
<path style="fill:#4f4f4f; stroke:none;" d="M171 55L172 56L171 55z"/>
<path style="fill:#6f6f6f; stroke:none;" d="M82 56L83 57L82 56z"/>
<path style="fill:#7b7b7b; stroke:none;" d="M97 56L98 57L97 56z"/>
<path style="fill:#b6b6b6; stroke:none;" d="M104 56L105 57L104 56z"/>
<path style="fill:#a0a0a0; stroke:none;" d="M120 56L121 57L120 56z"/>
<path style="fill:#7d7d7d; stroke:none;" d="M158 56L159 57L158 56z"/>
<path style="fill:#6b6b6b; stroke:none;" d="M173 56L174 57L173 56z"/>
<path style="fill:#8b8b8b; stroke:none;" d="M80 57L81 58L80 57z"/>
<path style="fill:#5e5e5e; stroke:none;" d="M95 57L96 58L95 57z"/>
<path style="fill:#9a9a9a; stroke:none;" d="M106 57L107 58L106 57z"/>
<path style="fill:#505050; stroke:none;" d="M121 57L122 58L121 57z"/>
<path style="fill:#616161; stroke:none;" d="M160 57L161 58L160 57z"/>
<path style="fill:#888888; stroke:none;" d="M175 57L176 58L175 57z"/>
<path style="fill:#a8a8a8; stroke:none;" d="M78 58L79 59L78 58z"/>
<path style="fill:#7d7d7d; stroke:none;" d="M108 58L109 59L108 58z"/>
<path style="fill:#6c6c6c; stroke:none;" d="M123 58L124 59L123 58z"/>
<path style="fill:#b0b0b0; stroke:none;" d="M161 58L162 59L161 58z"/>
<path style="fill:#a5a5a5; stroke:none;" d="M177 58L178 59L177 58z"/>
<path style="fill:#595959; stroke:none;" d="M77 59L78 60L77 59z"/>
<path style="fill:#909090; stroke:none;" d="M92 59L93 60L92 59z"/>
<path style="fill:#5f5f5f; stroke:none;" d="M110 59L111 60L110 59z"/>
<path style="fill:#8a8a8a; stroke:none;" d="M125 59L126 60L125 59z"/>
<path style="fill:#949494; stroke:none;" d="M163 59L164 60L163 59z"/>
<path style="fill:#555555; stroke:none;" d="M178 59L179 60L178 59z"/>
<path style="fill:#767676; stroke:none;" d="M75 60L76 61L75 60z"/>
<path style="fill:#737373; stroke:none;" d="M90 60L91 61L90 60z"/>
<path style="fill:#aeaeae; stroke:none;" d="M111 60L112 61L111 60z"/>
<path style="fill:#a7a7a7; stroke:none;" d="M127 60L128 61L127 60z"/>
<path style="fill:#767676; stroke:none;" d="M165 60L166 61L165 60z"/>
<path style="fill:#737373; stroke:none;" d="M180 60L181 61L180 60z"/>
<path style="fill:#949494; stroke:none;" d="M73 61L74 62L73 61z"/>
<path style="fill:#565656; stroke:none;" d="M88 61L89 62L88 61z"/>
<path style="fill:#929292; stroke:none;" d="M113 61L114 62L113 61z"/>
<path style="fill:#575757; stroke:none;" d="M128 61L129 62L128 61z"/>
<path style="fill:#595959; stroke:none;" d="M167 61L168 62L167 61z"/>
<path style="fill:#909090; stroke:none;" d="M182 61L183 62L182 61z"/>
<path style="fill:#b0b0b0; stroke:none;" d="M71 62L72 63L71 62z"/>
<path style="fill:#a5a5a5; stroke:none;" d="M87 62L88 63L87 62z"/>
<path style="fill:#757575; stroke:none;" d="M115 62L116 63L115 62z"/>
<path style="fill:#747474; stroke:none;" d="M130 62L131 63L130 62z"/>
<path style="fill:#a9a9a9; stroke:none;" d="M168 62L169 63L168 62z"/>
<path style="fill:#616161; stroke:none;" d="M70 63L71 64L70 63z"/>
<path style="fill:#898989; stroke:none;" d="M85 63L86 64L85 63z"/>
<path style="fill:#585858; stroke:none;" d="M117 63L118 64L117 63z"/>
<path style="fill:#929292; stroke:none;" d="M132 63L133 64L132 63z"/>
<path style="fill:#8c8c8c; stroke:none;" d="M170 63L171 64L170 63z"/>
<path style="fill:#5d5d5d; stroke:none;" d="M185 63L186 64L185 63z"/>
<path style="fill:#7e7e7e; stroke:none;" d="M68 64L69 65L68 64z"/>
<path style="fill:#6a6a6a; stroke:none;" d="M83 64L84 65L83 64z"/>
<path style="fill:#a7a7a7; stroke:none;" d="M118 64L119 65L118 64z"/>
<path style="fill:#6e6e6e; stroke:none;" d="M172 64L173 65L172 64z"/>
<path style="fill:#7b7b7b; stroke:none;" d="M187 64L188 65L187 64z"/>
<path style="fill:#9c9c9c; stroke:none;" d="M66 65L67 66L66 65z"/>
<path style="fill:#4f4f4f; stroke:none;" d="M81 65L82 66L81 65z"/>
<path style="fill:#8a8a8a; stroke:none;" d="M120 65L121 66L120 65z"/>
<path style="fill:#5f5f5f; stroke:none;" d="M135 65L136 66L135 65z"/>
<path style="fill:#989898; stroke:none;" d="M189 65L190 66L189 65z"/>
<path style="fill:#6d6d6d; stroke:none;" d="M80.3333 66.6667C80.2778 66.7222 80.2222 67.7778 80.6667 67.3333C80.7223 67.2777 80.7778 66.2223 80.3333 66.6667z"/>
<path style="fill:#6c6c6c; stroke:none;" d="M122 66L123 67L122 66z"/>
<path style="fill:#7c7c7c; stroke:none;" d="M137 66L138 67L137 66z"/>
<path style="fill:#a1a1a1; stroke:none;" d="M175 66L176 67L175 66z"/>
<path style="fill:#494949; stroke:none;" d="M190 66L191 67L190 66z"/>
<path style="fill:#696969; stroke:none;" d="M63 67L64 68L63 67z"/>
<path style="fill:#9b9b9b; stroke:none;" d="M139 67L140 68L139 67z"/>
<path style="fill:#838383; stroke:none;" d="M177 67L178 68L177 67z"/>
<path style="fill:#666666; stroke:none;" d="M192 67L193 68L192 67z"/>
<path style="fill:#868686; stroke:none;" d="M61 68L62 69L61 68z"/>
<path style="fill:#8a8a8a; stroke:none;" d="M82 68L83 69L82 68z"/>
<path style="fill:#a0a0a0; stroke:none;" d="M125 68L126 69L125 68z"/>
<path style="fill:#4b4b4b; stroke:none;" d="M140 68L141 69L140 68z"/>
<path style="fill:#676767; stroke:none;" d="M179 68L180 69L179 68z"/>
<path style="fill:#828282; stroke:none;" d="M194 68L195 69L194 68z"/>
<path style="fill:#a3a3a3; stroke:none;" d="M59 69L60 70L59 69z"/>
<path style="fill:#a7a7a7; stroke:none;" d="M84 69L85 70L84 69z"/>
<path style="fill:#838383; stroke:none;" d="M127 69L128 70L127 69z"/>
<path style="fill:#666666; stroke:none;" d="M142 69L143 70L142 69z"/>
<path style="fill:#b6b6b6; stroke:none;" d="M180 69L181 70L180 69z"/>
<path style="fill:#9f9f9f; stroke:none;" d="M196 69L197 70L196 69z"/>
<path style="fill:#575757; stroke:none;" d="M85 70L86 71L85 70z"/>
<path style="fill:#656565; stroke:none;" d="M129 70L130 71L129 70z"/>
<path style="fill:#848484; stroke:none;" d="M144 70L145 71L144 70z"/>
<path style="fill:#9a9a9a; stroke:none;" d="M182 70L183 71L182 70z"/>
<path style="fill:#505050; stroke:none;" d="M197 70L198 71L197 70z"/>
<path style="fill:#6f6f6f; stroke:none;" d="M56 71L57 72L56 71z"/>
<path style="fill:#717171; stroke:none;" d="M71.6667 71.3333C71.2222 71.7778 72.2778 71.7222 72.3333 71.6667C72.7778 71.2222 71.7222 71.2778 71.6667 71.3333z"/>
<path style="fill:#757575; stroke:none;" d="M87 71L88 72L87 71z"/>
<path style="fill:#b3b3b3; stroke:none;" d="M130 71L131 72L130 71z"/>
<path style="fill:#a1a1a1; stroke:none;" d="M146 71L147 72L146 71z"/>
<path style="fill:#7b7b7b; stroke:none;" d="M184 71L185 72L184 71z"/>
<path style="fill:#6d6d6d; stroke:none;" d="M199 71L200 72L199 71z"/>
<path style="fill:#8e8e8e; stroke:none;" d="M54 72L55 73L54 72z"/>
<path style="fill:#5c5c5c; stroke:none;" d="M69 72L70 73L69 72z"/>
<path style="fill:#ffffff; stroke:none;" d="M56 80L56 82C71.7668 91.6498 88.118 100.341 104 109.799C110.42 113.623 119.572 121.27 127 122.368C132.403 123.167 140.715 116.835 144 113C127.25 102.746 110.038 93.1891 93 83.4213C87.2822 80.1433 78.7526 72.666 72 72.4992C66.6288 72.3666 60.8241 77.9213 56 80z"/>
<path style="fill:#575757; stroke:none;" d="M74 72L75 73L74 72z"/>
<path style="fill:#929292; stroke:none;" d="M89 72L90 73L89 72z"/>
<path style="fill:#989898; stroke:none;" d="M132 72L133 73L132 72z"/>
<path style="fill:#525252; stroke:none;" d="M147 72L148 73L147 72z"/>
<path style="fill:#5f5f5f; stroke:none;" d="M186 72L187 73L186 72z"/>
<path style="fill:#8a8a8a; stroke:none;" d="M201 72L202 73L201 72z"/>
<path style="fill:#aaaaaa; stroke:none;" d="M52 73L53 74L52 73z"/>
<path style="fill:#a7a7a7; stroke:none;" d="M75 73L76 74L75 73z"/>
<path style="fill:#7a7a7a; stroke:none;" d="M134 73L135 74L134 73z"/>
<path style="fill:#6e6e6e; stroke:none;" d="M149 73L150 74L149 73z"/>
<path style="fill:#aeaeae; stroke:none;" d="M187 73L188 74L187 73z"/>
<path style="fill:#a7a7a7; stroke:none;" d="M203 73L204 74L203 73z"/>
<path style="fill:#5b5b5b; stroke:none;" d="M51 74L52 75L51 74z"/>
<path style="fill:#8f8f8f; stroke:none;" d="M66 74L67 75L66 74z"/>
<path style="fill:#8a8a8a; stroke:none;" d="M77 74L78 75L77 74z"/>
<path style="fill:#5f5f5f; stroke:none;" d="M92 74L93 75L92 74z"/>
<path style="fill:#5d5d5d; stroke:none;" d="M136 74L137 75L136 74z"/>
<path style="fill:#8c8c8c; stroke:none;" d="M151 74L152 75L151 74z"/>
<path style="fill:#929292; stroke:none;" d="M189 74L190 75L189 74z"/>
<path style="fill:#585858; stroke:none;" d="M204 74L205 75L204 74z"/>
<path style="fill:#787878; stroke:none;" d="M49 75L50 76L49 75z"/>
<path style="fill:#707070; stroke:none;" d="M64 75L65 76L64 75z"/>
<path style="fill:#6c6c6c; stroke:none;" d="M79 75L80 76L79 75z"/>
<path style="fill:#7d7d7d; stroke:none;" d="M94 75L95 76L94 75z"/>
<path style="fill:#adadad; stroke:none;" d="M137 75L138 76L137 75z"/>
<path style="fill:#a9a9a9; stroke:none;" d="M153 75L154 76L153 75z"/>
<path style="fill:#737373; stroke:none;" d="M191 75L192 76L191 75z"/>
<path style="fill:#757575; stroke:none;" d="M206 75L207 76L206 75z"/>
<path style="fill:#969696; stroke:none;" d="M47 76L48 77L47 76z"/>
<path style="fill:#545454; stroke:none;" d="M62 76L63 77L62 76z"/>
<path style="fill:#999999; stroke:none;" d="M96 76L97 77L96 76z"/>
<path style="fill:#8f8f8f; stroke:none;" d="M139 76L140 77L139 76z"/>
<path style="fill:#5a5a5a; stroke:none;" d="M154 76L155 77L154 76z"/>
<path style="fill:#575757; stroke:none;" d="M193 76L194 77L193 76z"/>
<path style="fill:#939393; stroke:none;" d="M208 76L209 77L208 76z"/>
<path style="fill:#b3b3b3; stroke:none;" d="M45 77L46 78L45 77z"/>
<path style="fill:#a3a3a3; stroke:none;" d="M61 77L62 78L61 77z"/>
<path style="fill:#a0a0a0; stroke:none;" d="M82 77L83 78L82 77z"/>
<path style="fill:#4a4a4a; stroke:none;" d="M97 77L98 78L97 77z"/>
<path style="fill:#727272; stroke:none;" d="M141 77L142 78L141 77z"/>
<path style="fill:#777777; stroke:none;" d="M156 77L157 78L156 77z"/>
<path style="fill:#a7a7a7; stroke:none;" d="M194 77L195 78L194 77z"/>
<path style="fill:#7d7d7d; stroke:none;" d="M44 78L45 79L44 78z"/>
<path style="fill:#888888; stroke:none;" d="M59 78L60 79L59 78z"/>
<path style="fill:#818181; stroke:none;" d="M84 78L85 79L84 78z"/>
<path style="fill:#696969; stroke:none;" d="M99 78L100 79L99 78z"/>
<path style="fill:#969696; stroke:none;" d="M158 78L159 79L158 78z"/>
<path style="fill:#888888; stroke:none;" d="M196 78L197 79L196 78z"/>
<path style="fill:#7d7d7d; stroke:none;" d="M211 78L212 79L211 78z"/>
<path style="fill:#4b4b4b; stroke:none;" d="M43 79L43 176C45.9032 169.081 44 158.48 44 151L44 102C44 95.049 45.7007 85.4361 43 79z"/>
<path style="fill:#696969; stroke:none;" d="M57 79L58 80L57 79z"/>
<path style="fill:#646464; stroke:none;" d="M86 79L87 80L86 79z"/>
<path style="fill:#848484; stroke:none;" d="M101 79L102 80L101 79z"/>
<path style="fill:#a5a5a5; stroke:none;" d="M144 79L145 80L144 79z"/>
<path style="fill:#6c6c6c; stroke:none;" d="M198 79L199 80L198 79z"/>
<path style="fill:#4b4b4b; stroke:none;" d="M212 79L212 176C214.903 169.081 213 158.48 213 151L213 102C213 95.049 214.701 85.4361 212 79z"/>
<path style="fill:#505050; stroke:none;" d="M55 80L56 81L55 80z"/>
<path style="fill:#b2b2b2; stroke:none;" d="M87 80L88 81L87 80z"/>
<path style="fill:#a3a3a3; stroke:none;" d="M103 80L104 81L103 80z"/>
<path style="fill:#868686; stroke:none;" d="M146 80L147 81L146 80z"/>
<path style="fill:#636363; stroke:none;" d="M161 80L162 81L161 80z"/>
<path style="fill:#9a9a9a; stroke:none;" d="M55 81L56 82L55 81z"/>
<path style="fill:#989898; stroke:none;" d="M89 81L90 82L89 81z"/>
<path style="fill:#525252; stroke:none;" d="M104 81L105 82L104 81z"/>
<path style="fill:#6b6b6b; stroke:none;" d="M148 81L149 82L148 81z"/>
<path style="fill:#7e7e7e; stroke:none;" d="M163 81L164 82L163 81z"/>
<path style="fill:#9f9f9f; stroke:none;" d="M200 81L201 82L200 81z"/>
<path style="fill:#5d5d5d; stroke:none;" d="M56 82L57 83L56 82z"/>
<path style="fill:#7b7b7b; stroke:none;" d="M91 82L92 83L91 82z"/>
<path style="fill:#6e6e6e; stroke:none;" d="M106 82L107 83L106 82z"/>
<path style="fill:#9b9b9b; stroke:none;" d="M165 82L166 83L165 82z"/>
<path style="fill:#616161; stroke:none;" d="M199 82L200 83L199 82z"/>
<path style="fill:#7b7b7b; stroke:none;" d="M58 83L59 84L58 83z"/>
<path style="fill:#5d5d5d; stroke:none;" d="M93 83L94 84L93 83z"/>
<path style="fill:#8c8c8c; stroke:none;" d="M108 83L109 84L108 83z"/>
<path style="fill:#9e9e9e; stroke:none;" d="M151 83L152 84L151 83z"/>
<path style="fill:#4c4c4c; stroke:none;" d="M166 83L167 84L166 83z"/>
<path style="fill:#7e7e7e; stroke:none;" d="M197 83L198 84L197 83z"/>
<path style="fill:#989898; stroke:none;" d="M60 84L61 85L60 84z"/>
<path style="fill:#acacac; stroke:none;" d="M94 84L95 85L94 84z"/>
<path style="fill:#a9a9a9; stroke:none;" d="M110 84L111 85L110 84z"/>
<path style="fill:#808080; stroke:none;" d="M153 84L154 85L153 84z"/>
<path style="fill:#696969; stroke:none;" d="M168 84L169 85L168 84z"/>
<path style="fill:#9b9b9b; stroke:none;" d="M195 84L196 85L195 84z"/>
<path style="fill:#4a4a4a; stroke:none;" d="M61 85L62 86L61 85z"/>
<path style="fill:#909090; stroke:none;" d="M96 85L97 86L96 85z"/>
<path style="fill:#595959; stroke:none;" d="M111 85L112 86L111 85z"/>
<path style="fill:#636363; stroke:none;" d="M155 85L156 86L155 85z"/>
<path style="fill:#868686; stroke:none;" d="M170 85L171 86L170 85z"/>
<path style="fill:#656565; stroke:none;" d="M63 86L64 87L63 86z"/>
<path style="fill:#727272; stroke:none;" d="M98 86L99 87L98 86z"/>
<path style="fill:#777777; stroke:none;" d="M113 86L114 87L113 86z"/>
<path style="fill:#b2b2b2; stroke:none;" d="M156 86L157 87L156 86z"/>
<path style="fill:#a4a4a4; stroke:none;" d="M172 86L173 87L172 86z"/>
<path style="fill:#696969; stroke:none;" d="M192 86L193 87L192 86z"/>
<path style="fill:#838383; stroke:none;" d="M65 87L66 88L65 87z"/>
<path style="fill:#565656; stroke:none;" d="M100 87L101 88L100 87z"/>
<path style="fill:#959595; stroke:none;" d="M115 87L116 88L115 87M158 87L159 88L158 87z"/>
<path style="fill:#555555; stroke:none;" d="M173 87L174 88L173 87z"/>
<path style="fill:#868686; stroke:none;" d="M190 87L191 88L190 87z"/>
<path style="fill:#393939; stroke:none;" d="M50 88L50 173C52.5991 166.806 51 157.686 51 151L51 108C51 101.846 52.3949 93.7073 50 88z"/>
<path style="fill:#a5a5a5; stroke:none;" d="M51 88L52 89L51 88z"/>
<path style="fill:#a0a0a0; stroke:none;" d="M67 88L68 89L67 88z"/>
<path style="fill:#a5a5a5; stroke:none;" d="M101 88L102 89L101 88z"/>
<path style="fill:#787878; stroke:none;" d="M160 88L161 89L160 88z"/>
<path style="fill:#717171; stroke:none;" d="M175 88L176 89L175 88z"/>
<path style="fill:#a3a3a3; stroke:none;" d="M188 88L189 89L188 88M204 88L205 89L204 88z"/>
<path style="fill:#393939; stroke:none;" d="M205 88L205 173C207.599 166.806 206 157.686 206 151L206 108C206 101.846 207.395 93.7073 205 88z"/>
<path style="fill:#efefef; stroke:none;" d="M51 89L51 173C53.7007 166.564 52 156.951 52 150L52 112C52 104.409 51.233 96.4221 53 89L51 89z"/>
<path style="fill:#999999; stroke:none;" d="M53 89L54 90L53 89z"/>
<path style="fill:#515151; stroke:none;" d="M68 89L69 90L68 89z"/>
<path style="fill:#888888; stroke:none;" d="M103 89L104 90L103 89z"/>
<path style="fill:#616161; stroke:none;" d="M118 89L119 90L118 89z"/>
<path style="fill:#5b5b5b; stroke:none;" d="M162 89L163 90L162 89z"/>
<path style="fill:#8e8e8e; stroke:none;" d="M177 89L178 90L177 89z"/>
<path style="fill:#969696; stroke:none;" d="M202 89L203 90L202 89z"/>
<path style="fill:#efefef; stroke:none;" d="M203 89C205.267 98.5209 204 109.251 204 119L204 173C206.395 167.293 205 159.154 205 153L205 109C205 103.783 207.127 92.6059 203 89z"/>
<path style="fill:#ffffff; stroke:none;" d="M52 90L52 147C52 154.038 49.8533 165.287 52.6034 171.815C54.9674 177.426 65.9356 181.4 71 184.281C82.3671 190.747 93.6428 197.367 105 203.85C111.132 207.35 117.256 211.865 124 214L124 156C124 149.131 126.215 137.643 123.397 131.329C121.018 126 110.836 122.475 106 119.719C94.6219 113.236 83.2921 106.643 72 100.011C65.7958 96.367 59.1201 91.3729 52 90z"/>
<path style="fill:#7b7b7b; stroke:none;" d="M55 90L56 91L55 90z"/>
<path style="fill:#6d6d6d; stroke:none;" d="M70 90L71 91L70 90z"/>
<path style="fill:#6b6b6b; stroke:none;" d="M105 90L106 91L105 90z"/>
<path style="fill:#7e7e7e; stroke:none;" d="M120 90L121 91L120 90z"/>
<path style="fill:#aaaaaa; stroke:none;" d="M163 90L164 91L163 90z"/>
<path style="fill:#717171; stroke:none;" d="M185 90L186 91L185 90z"/>
<path style="fill:#787878; stroke:none;" d="M200 90L201 91L200 90z"/>
<path style="fill:#ffffff; stroke:none;" d="M148 122C143.377 123.334 134.668 126.46 132.603 131.213C129.812 137.639 132 149.04 132 156L132 214C139.762 211.174 146.893 206.185 154 202.011C164.279 195.974 174.648 190.06 185 184.15C190.094 181.243 201.008 177.485 203.397 171.815C206.147 165.287 204 154.038 204 147L204 90C201.024 90.5371 198.64 91.5051 196 93.0154C193.267 94.579 188.997 96.3554 187.603 99.3789C184.846 105.362 187.013 116.462 187 123C186.994 125.943 187.308 129.356 185.397 131.837C181.43 136.987 175.038 131.48 170.039 134.032C163.617 137.31 160.841 148.57 153.846 150.387C150.573 151.237 148.715 147.623 148.228 144.996C146.886 137.742 148 129.372 148 122z"/>
<path style="fill:#5e5e5e; stroke:none;" d="M57 91L58 92L57 91z"/>
<path style="fill:#8c8c8c; stroke:none;" d="M72 91L73 92L72 91z"/>
<path style="fill:#9c9c9c; stroke:none;" d="M122 91L123 92L122 91z"/>
<path style="fill:#8e8e8e; stroke:none;" d="M165 91L166 92L165 91z"/>
<path style="fill:#5b5b5b; stroke:none;" d="M180 91L181 92L180 91z"/>
<path style="fill:#8f8f8f; stroke:none;" d="M183 91L184 92L183 91z"/>
<path style="fill:#5a5a5a; stroke:none;" d="M198 91L199 92L198 91z"/>
<path style="fill:#adadad; stroke:none;" d="M58 92L59 93L58 92z"/>
<path style="fill:#a8a8a8; stroke:none;" d="M74 92L75 93L74 92z"/>
<path style="fill:#9d9d9d; stroke:none;" d="M108 92L109 93L108 92z"/>
<path style="fill:#4e4e4e; stroke:none;" d="M123 92L124 93L123 92z"/>
<path style="fill:#6f6f6f; stroke:none;" d="M167 92L168 93L167 92z"/>
<path style="fill:#323232; stroke:none;" d="M181.667 92.3333C181.222 92.7778 182.278 92.7222 182.333 92.6667C182.778 92.2222 181.722 92.2778 181.667 92.3333z"/>
<path style="fill:#929292; stroke:none;" d="M60 93L61 94L60 93z"/>
<path style="fill:#585858; stroke:none;" d="M75 93L76 94L75 93z"/>
<path style="fill:#818181; stroke:none;" d="M110 93L111 94L110 93z"/>
<path style="fill:#686868; stroke:none;" d="M125 93L126 94L125 93z"/>
<path style="fill:#8f8f8f; stroke:none;" d="M195 93L196 94L195 93z"/>
<path style="fill:#747474; stroke:none;" d="M62 94L63 95L62 94z"/>
<path style="fill:#757575; stroke:none;" d="M77 94L78 95L77 94z"/>
<path style="fill:#626262; stroke:none;" d="M112 94L113 95L112 94z"/>
<path style="fill:#878787; stroke:none;" d="M127 94L128 95L127 94z"/>
<path style="fill:#a4a4a4; stroke:none;" d="M170 94L171 95L170 94z"/>
<path style="fill:#707070; stroke:none;" d="M193 94L194 95L193 94z"/>
<path style="fill:#575757; stroke:none;" d="M64 95L65 96L64 95z"/>
<path style="fill:#939393; stroke:none;" d="M79 95L80 96L79 95z"/>
<path style="fill:#b1b1b1; stroke:none;" d="M113 95L114 96L113 95z"/>
<path style="fill:#a4a4a4; stroke:none;" d="M129 95L130 96L129 95z"/>
<path style="fill:#868686; stroke:none;" d="M172 95L173 96L172 95z"/>
<path style="fill:#545454; stroke:none;" d="M191 95L192 96L191 95z"/>
<path style="fill:#a6a6a6; stroke:none;" d="M65 96L66 97L65 96z"/>
<path style="fill:#959595; stroke:none;" d="M115 96L116 97L115 96z"/>
<path style="fill:#545454; stroke:none;" d="M130 96L131 97L130 96z"/>
<path style="fill:#a4a4a4; stroke:none;" d="M190 96L191 97L190 96z"/>
<path style="fill:#898989; stroke:none;" d="M67 97L68 98L67 97z"/>
<path style="fill:#606060; stroke:none;" d="M82 97L83 98L82 97z"/>
<path style="fill:#787878; stroke:none;" d="M117 97L118 98L117 97z"/>
<path style="fill:#717171; stroke:none;" d="M132 97L133 98L132 97z"/>
<path style="fill:#656565; stroke:none;" d="M173 97L174 98L173 97z"/>
<path style="fill:#868686; stroke:none;" d="M188 97L189 98L188 97z"/>
<path style="fill:#6b6b6b; stroke:none;" d="M69 98L70 99L69 98z"/>
<path style="fill:#7e7e7e; stroke:none;" d="M84 98L85 99L84 98z"/>
<path style="fill:#5a5a5a; stroke:none;" d="M119 98L120 99L119 98z"/>
<path style="fill:#909090; stroke:none;" d="M134 98L135 99L134 98z"/>
<path style="fill:#808080; stroke:none;" d="M171 98L172 99L171 98z"/>
<path style="fill:#636363; stroke:none;" d="M186 98L187 99L186 98z"/>
<path style="fill:#9b9b9b; stroke:none;" d="M86 99L87 100L86 99z"/>
<path style="fill:#ababab; stroke:none;" d="M120 99L121 100L120 99z"/>
<path style="fill:#9e9e9e; stroke:none;" d="M169 99L170 100L169 99z"/>
<path style="fill:#232323; stroke:none;" d="M185 99L185 132C187.701 125.564 186 115.951 186 109C186 105.581 186.328 102.166 185 99z"/>
<path style="fill:#d8d8d8; stroke:none;" d="M186 99L186 132C188.701 125.564 187 115.951 187 109C187 105.581 187.328 102.166 186 99z"/>
<path style="fill:#9f9f9f; stroke:none;" d="M72 100L73 101L72 100z"/>
<path style="fill:#4c4c4c; stroke:none;" d="M87 100L88 101L87 100z"/>
<path style="fill:#8e8e8e; stroke:none;" d="M122 100L123 101L122 100z"/>
<path style="fill:#5b5b5b; stroke:none;" d="M137 100L138 101L137 100z"/>
<path style="fill:#818181; stroke:none;" d="M74 101L75 102L74 101z"/>
<path style="fill:#686868; stroke:none;" d="M89 101L90 102L89 101z"/>
<path style="fill:#717171; stroke:none;" d="M124 101L125 102L124 101z"/>
<path style="fill:#787878; stroke:none;" d="M139 101L140 102L139 101z"/>
<path style="fill:#6b6b6b; stroke:none;" d="M166 101L167 102L166 101z"/>
<path style="fill:#636363; stroke:none;" d="M76 102L77 103L76 102z"/>
<path style="fill:#868686; stroke:none;" d="M91 102L92 103L91 102z"/>
<path style="fill:#979797; stroke:none;" d="M141 102L142 103L141 102z"/>
<path style="fill:#898989; stroke:none;" d="M164 102L165 103L164 102z"/>
<path style="fill:#b2b2b2; stroke:none;" d="M77 103L78 104L77 103z"/>
<path style="fill:#a3a3a3; stroke:none;" d="M93 103L94 104L93 103z"/>
<path style="fill:#a2a2a2; stroke:none;" d="M127 103L128 104L127 103z"/>
<path style="fill:#494949; stroke:none;" d="M142 103L143 104L142 103z"/>
<path style="fill:#a5a5a5; stroke:none;" d="M162 103L163 104L162 103z"/>
<path style="fill:#3b3b3b; stroke:none;" d="M177.667 103.333C177.222 103.778 178.278 103.722 178.333 103.667C178.778 103.222 177.722 103.278 177.667 103.333z"/>
<path style="fill:#989898; stroke:none;" d="M79 104L80 105L79 104z"/>
<path style="fill:#535353; stroke:none;" d="M94 104L95 105L94 104z"/>
<path style="fill:#868686; stroke:none;" d="M129 104L130 105L129 104z"/>
<path style="fill:#636363; stroke:none;" d="M144 104L145 105L144 104z"/>
<path style="fill:#555555; stroke:none;" d="M161 104L162 105L161 104z"/>
<path style="fill:#959595; stroke:none;" d="M176 104L177 105L176 104z"/>
<path style="fill:#ffffff; stroke:none;" d="M177 104C171.636 107.283 161.276 110.699 158.028 116.213C155.179 121.048 157 130.521 157 136C160.78 132.408 163.875 126.392 169.001 124.618C171.833 123.638 175.129 124.638 178 125C178 118.564 179.5 109.959 177 104z"/>
<path style="fill:#707070; stroke:none;" d="M178 104C178 109.819 180.364 121.523 175 125C176.506 125.683 177.315 125.826 179 126C179 119.298 180.603 110.202 178 104z"/>
<path style="fill:#797979; stroke:none;" d="M81 105L82 106L81 105z"/>
<path style="fill:#6f6f6f; stroke:none;" d="M96 105L97 106L96 105z"/>
<path style="fill:#686868; stroke:none;" d="M131 105L132 106L131 105z"/>
<path style="fill:#818181; stroke:none;" d="M146 105L147 106L146 105z"/>
<path style="fill:#727272; stroke:none;" d="M159 105L160 106L159 105z"/>
<path style="fill:#767676; stroke:none;" d="M174 105L175 106L174 105z"/>
<path style="fill:#5d5d5d; stroke:none;" d="M83 106L84 107L83 106z"/>
<path style="fill:#8d8d8d; stroke:none;" d="M98 106L99 107L98 106z"/>
<path style="fill:#9e9e9e; stroke:none;" d="M148 106L149 107L148 106z"/>
<path style="fill:#909090; stroke:none;" d="M157 106L158 107L157 106z"/>
<path style="fill:#595959; stroke:none;" d="M172 106L173 107L172 106z"/>
<path style="fill:#acacac; stroke:none;" d="M84 107L85 108L84 107z"/>
<path style="fill:#aaaaaa; stroke:none;" d="M100 107L101 108L100 107z"/>
<path style="fill:#9b9b9b; stroke:none;" d="M134 107L135 108L134 107z"/>
<path style="fill:#4f4f4f; stroke:none;" d="M149 107L150 108L149 107z"/>
<path style="fill:#adadad; stroke:none;" d="M155 107L156 108L155 107z"/>
<path style="fill:#a9a9a9; stroke:none;" d="M171 107L172 108L171 107z"/>
<path style="fill:#8f8f8f; stroke:none;" d="M86 108L87 109L86 108z"/>
<path style="fill:#5a5a5a; stroke:none;" d="M101 108L102 109L101 108z"/>
<path style="fill:#7e7e7e; stroke:none;" d="M136 108L137 109L136 108z"/>
<path style="fill:#6b6b6b; stroke:none;" d="M151 108L152 109L151 108z"/>
<path style="fill:#c5c5c5; stroke:none;" d="M152.667 108.333C152.222 108.778 153.278 108.722 153.333 108.667C153.778 108.222 152.722 108.278 152.667 108.333z"/>
<path style="fill:#5d5d5d; stroke:none;" d="M154 108L155 109L154 108z"/>
<path style="fill:#8c8c8c; stroke:none;" d="M169 108L170 109L169 108z"/>
<path style="fill:#717171; stroke:none;" d="M88 109L89 110L88 109z"/>
<path style="fill:#787878; stroke:none;" d="M103 109L104 110L103 109z"/>
<path style="fill:#606060; stroke:none;" d="M138 109L139 110L138 109z"/>
<path style="fill:#6f6f6f; stroke:none;" d="M167 109L168 110L167 109z"/>
<path style="fill:#555555; stroke:none;" d="M90 110L91 111L90 110z"/>
<path style="fill:#959595; stroke:none;" d="M105 110L106 111L105 110z"/>
<path style="fill:#b1b1b1; stroke:none;" d="M139 110L140 111L139 110z"/>
<path style="fill:#525252; stroke:none;" d="M165 110L166 111L165 110z"/>
<path style="fill:#a4a4a4; stroke:none;" d="M91 111L92 112L91 111z"/>
<path style="fill:#949494; stroke:none;" d="M141 111L142 112L141 111z"/>
<path style="fill:#a1a1a1; stroke:none;" d="M164 111L165 112L164 111z"/>
<path style="fill:#888888; stroke:none;" d="M93 112L94 113L93 112z"/>
<path style="fill:#626262; stroke:none;" d="M108 112L109 113L108 112z"/>
<path style="fill:#767676; stroke:none;" d="M143 112L144 113L143 112z"/>
<path style="fill:#848484; stroke:none;" d="M162 112L163 113L162 112z"/>
<path style="fill:#686868; stroke:none;" d="M95 113L96 114L95 113z"/>
<path style="fill:#808080; stroke:none;" d="M110 113L111 114L110 113z"/>
<path style="fill:#a3a3a3; stroke:none;" d="M144 113L145 114L144 113z"/>
<path style="fill:#666666; stroke:none;" d="M160 113L161 114L160 113z"/>
<path style="fill:#9d9d9d; stroke:none;" d="M112 114L113 115L112 114z"/>
<path style="fill:#a1a1a1; stroke:none;" d="M143 114L144 115L143 114z"/>
<path style="fill:#4a4a4a; stroke:none;" d="M158 114L159 115L158 114z"/>
<path style="fill:#9c9c9c; stroke:none;" d="M98 115L99 116L98 115z"/>
<path style="fill:#4e4e4e; stroke:none;" d="M113 115L114 116L113 115z"/>
<path style="fill:#989898; stroke:none;" d="M157 115L158 116L157 115z"/>
<path style="fill:#808080; stroke:none;" d="M100 116L101 117L100 116z"/>
<path style="fill:#696969; stroke:none;" d="M115 116L116 117L115 116z"/>
<path style="fill:#6c6c6c; stroke:none;" d="M140 116L141 117L140 116z"/>
<path style="fill:#535353; stroke:none;" d="M156 116C156 121.406 153.755 133.29 158 137C156.394 130.254 158.643 122.299 156 116z"/>
<path style="fill:#626262; stroke:none;" d="M102 117L103 118L102 117z"/>
<path style="fill:#878787; stroke:none;" d="M117 117L118 118L117 117z"/>
<path style="fill:#8a8a8a; stroke:none;" d="M138 117L139 118L138 117z"/>
<path style="fill:#b1b1b1; stroke:none;" d="M103 118L104 119L103 118z"/>
<path style="fill:#a4a4a4; stroke:none;" d="M119 118L120 119L119 118z"/>
<path style="fill:#a7a7a7; stroke:none;" d="M136 118L137 119L136 118z"/>
<path style="fill:#959595; stroke:none;" d="M105 119L106 120L105 119z"/>
<path style="fill:#555555; stroke:none;" d="M120 119L121 120L120 119z"/>
<path style="fill:#585858; stroke:none;" d="M135 119L136 120L135 119z"/>
<path style="fill:#777777; stroke:none;" d="M107 120L108 121L107 120z"/>
<path style="fill:#727272; stroke:none;" d="M122 120L123 121L122 120z"/>
<path style="fill:#747474; stroke:none;" d="M133 120L134 121L133 120z"/>
<path style="fill:#383838; stroke:none;" d="M148 120C150.196 129.225 149 139.555 149 149C151.494 143.057 150.012 134.413 150 128C149.994 124.894 150.407 122.103 148 120z"/>
<path style="fill:#5a5a5a; stroke:none;" d="M109 121L110 122L109 121z"/>
<path style="fill:#8f8f8f; stroke:none;" d="M124 121L125 122L124 121z"/>
<path style="fill:#939393; stroke:none;" d="M131 121L132 122L131 121z"/>
<path style="fill:#575757; stroke:none;" d="M146 121L147 122L146 121z"/>
<path style="fill:#e8e8e8; stroke:none;" d="M147 121C149.054 129.626 148 139.17 148 148C150.289 142.545 149.011 134.88 149 129C148.994 125.894 149.407 123.103 147 121z"/>
<path style="fill:#a9a9a9; stroke:none;" d="M110 122L111 123L110 122z"/>
<path style="fill:#a6a6a6; stroke:none;" d="M145 122L146 123L145 122z"/>
<path style="fill:#8c8c8c; stroke:none;" d="M112 123L113 124L112 123z"/>
<path style="fill:#595959; stroke:none;" d="M127.667 123.333C127.222 123.778 128.278 123.722 128.333 123.667C128.778 123.222 127.722 123.278 127.667 123.333z"/>
<path style="fill:#8b8b8b; stroke:none;" d="M143 123L144 124L143 123z"/>
<path style="fill:#6d6d6d; stroke:none;" d="M114 124L115 125L114 124M141 124L142 125L141 124z"/>
<path style="fill:#232323; stroke:none;" d="M167 124C168.506 124.683 169.315 124.826 171 125C169.494 124.317 168.685 124.174 167 124z"/>
<path style="fill:#878787; stroke:none;" d="M171.667 124.333C171.222 124.778 172.278 124.722 172.333 124.667C172.778 124.222 171.722 124.278 171.667 124.333z"/>
<path style="fill:#d4d4d4; stroke:none;" d="M173.667 124.333C173.222 124.778 174.278 124.722 174.333 124.667C174.778 124.222 173.722 124.278 173.667 124.333z"/>
<path style="fill:#515151; stroke:none;" d="M139 125L140 126L139 125z"/>
<path style="fill:#a2a2a2; stroke:none;" d="M117 126L118 127L117 126z"/>
<path style="fill:#9f9f9f; stroke:none;" d="M138 126L139 127L138 126z"/>
<path style="fill:#5b5b5b; stroke:none;" d="M165 126L166 127L165 126z"/>
<path style="fill:#858585; stroke:none;" d="M119 127L120 128L119 127z"/>
<path style="fill:#828282; stroke:none;" d="M136 127L137 128L136 127z"/>
<path style="fill:#7a7a7a; stroke:none;" d="M164 127L165 128L164 127z"/>
<path style="fill:#686868; stroke:none;" d="M121 128L122 129L121 128z"/>
<path style="fill:#656565; stroke:none;" d="M134 128L135 129L134 128z"/>
<path style="fill:#979797; stroke:none;" d="M163 128L164 129L163 128z"/>
<path style="fill:#b6b6b6; stroke:none;" d="M122 129L123 130L122 129z"/>
<path style="fill:#b5b5b5; stroke:none;" d="M162 129L163 130L162 129z"/>
<path style="fill:#3e3e3e; stroke:none;" d="M124 130L124 185C124 194.749 125.267 205.479 123 215C127.127 211.394 125 200.217 125 195L125 151C125 144.58 126.497 135.951 124 130M131 130L131 195C131 199.764 128.573 213.837 134 215C130.496 208.699 132 200.017 132 193L132 150C132 143.846 133.395 135.707 131 130z"/>
<path style="fill:#646464; stroke:none;" d="M160 132L161 133L160 132z"/>
<path style="fill:#d2d2d2; stroke:none;" d="M170 132C171.248 132.685 171.548 132.749 173 133C171.752 132.315 171.452 132.251 170 132z"/>
<path style="fill:#4e4e4e; stroke:none;" d="M173.667 132.333C173.222 132.778 174.278 132.722 174.333 132.667C174.778 132.222 173.722 132.278 173.667 132.333z"/>
<path style="fill:#8e8e8e; stroke:none;" d="M185 132L186 133L185 132z"/>
<path style="fill:#818181; stroke:none;" d="M159 133L160 134L159 133z"/>
<path style="fill:#979797; stroke:none;" d="M169 133L170 134L169 133z"/>
<path style="fill:#939393; stroke:none;" d="M176.667 133.333C176.222 133.778 177.278 133.722 177.333 133.667C177.778 133.222 176.722 133.278 176.667 133.333z"/>
<path style="fill:#3f3f3f; stroke:none;" d="M178.667 133.333C178.222 133.778 179.278 133.722 179.333 133.667C179.778 133.222 178.722 133.278 178.667 133.333z"/>
<path style="fill:#7c7c7c; stroke:none;" d="M184 133L185 134L184 133z"/>
<path style="fill:#a0a0a0; stroke:none;" d="M158 134L159 135L158 134z"/>
<path style="fill:#797979; stroke:none;" d="M168 134L169 135L168 134z"/>
<path style="fill:#b1b1b1; stroke:none;" d="M180 134C181.506 134.683 182.315 134.826 184 135C182.494 134.317 181.685 134.174 180 134z"/>
<path style="fill:#5a5a5a; stroke:none;" d="M167 135L168 136L167 135z"/>
<path style="fill:#ababab; stroke:none;" d="M165 138L166 139L165 138z"/>
<path style="fill:#8e8e8e; stroke:none;" d="M164 139L165 140L164 139z"/>
<path style="fill:#6f6f6f; stroke:none;" d="M163 140L164 141L163 140z"/>
<path style="fill:#525252; stroke:none;" d="M162 141L163 142L162 141z"/>
<path style="fill:#6f6f6f; stroke:none;" d="M60 143C61.2484 143.685 61.5484 143.749 63 144C61.7516 143.315 61.4516 143.251 60 143z"/>
<path style="fill:#505050; stroke:none;" d="M59 144L60 145L59 144z"/>
<path style="fill:#000000; stroke:none;" d="M60.608 145.07C58.7881 146.369 59.3677 148.913 60.608 150.367C62.7457 152.871 69.3675 156.954 72.6628 154.929C78.3653 151.424 64.6501 142.186 60.608 145.07z"/>
<path style="fill:#5f5f5f; stroke:none;" d="M64 144L65 145L64 144z"/>
<path style="fill:#a3a3a3; stroke:none;" d="M160 144L161 145L160 144z"/>
<path style="fill:#353535; stroke:none;" d="M58 145L58 149C58.7102 147.241 58.7102 146.759 58 145z"/>
<path style="fill:#7c7c7c; stroke:none;" d="M66 145L67 146L66 145z"/>
<path style="fill:#858585; stroke:none;" d="M159 145L160 146L159 145z"/>
<path style="fill:#999999; stroke:none;" d="M68 146L69 147L68 146z"/>
<path style="fill:#676767; stroke:none;" d="M158 146L159 147L158 146z"/>
<path style="fill:#4b4b4b; stroke:none;" d="M69 147L70 148L69 147M157 147L158 148L157 147z"/>
<path style="fill:#676767; stroke:none;" d="M71 148L72 149L71 148z"/>
<path style="fill:#8e8e8e; stroke:none;" d="M73 149L74 150L73 149z"/>
<path style="fill:#afafaf; stroke:none;" d="M149 149L150 150L149 149z"/>
<path style="fill:#8e8e8e; stroke:none;" d="M74 150L75 151L74 150z"/>
<path style="fill:#9c9c9c; stroke:none;" d="M150 150L151 151L150 150z"/>
<path style="fill:#b2b2b2; stroke:none;" d="M155 150L156 151L155 150z"/>
<path style="fill:#999999; stroke:none;" d="M61 151L62 152L61 151z"/>
<path style="fill:#cccccc; stroke:none;" d="M75 151L75 154C75.6961 152.446 75.6961 152.554 75 151z"/>
<path style="fill:#c3c3c3; stroke:none;" d="M152.667 151.333C152.222 151.778 153.278 151.722 153.333 151.667C153.778 151.222 152.722 151.278 152.667 151.333z"/>
<path style="fill:#7a7a7a; stroke:none;" d="M63 152L64 153L63 152z"/>
<path style="fill:#5e5e5e; stroke:none;" d="M65 153L66 154L65 153z"/>
<path style="fill:#adadad; stroke:none;" d="M66 154L67 155L66 154z"/>
<path style="fill:#636363; stroke:none;" d="M74 154L75 155L74 154z"/>
<path style="fill:#909090; stroke:none;" d="M68 155L69 156L68 155z"/>
<path style="fill:#515151; stroke:none;" d="M73 155L74 156L73 155z"/>
<path style="fill:#8b8b8b; stroke:none;" d="M70 156C71.2484 156.685 71.5484 156.749 73 157C71.7516 156.315 71.4516 156.251 70 156z"/>
<path style="fill:#828282; stroke:none;" d="M60 160C61.2483 160.685 61.5484 160.749 63 161C61.7517 160.315 61.4516 160.251 60 160z"/>
<path style="fill:#606060; stroke:none;" d="M59 161L60 162L59 161z"/>
<path style="fill:#000000; stroke:none;" d="M82 177C81.46 169.901 75.6354 167.773 70 164.579C67.7357 163.296 64.9097 161.223 62.1481 161.532C54.539 162.383 63.9714 169.973 66.0008 171.15C67.9868 172.301 69.9763 173.477 72 174.56C75.322 176.338 78.2769 176.912 82 177z"/>
<path style="fill:#727272; stroke:none;" d="M64 161L65 162L64 161z"/>
<path style="fill:#393939; stroke:none;" d="M58 162L58 166C58.7102 164.241 58.7102 163.759 58 162z"/>
<path style="fill:#909090; stroke:none;" d="M66 162L67 163L66 162z"/>
<path style="fill:#5d5d5d; stroke:none;" d="M69 164L70 165L69 164z"/>
<path style="fill:#7a7a7a; stroke:none;" d="M71 165L72 166L71 165z"/>
<path style="fill:#979797; stroke:none;" d="M73 166L74 167L73 166z"/>
<path style="fill:#aeaeae; stroke:none;" d="M59 167L60 168L59 167z"/>
<path style="fill:#878787; stroke:none;" d="M61 168L62 169L61 168z"/>
<path style="fill:#636363; stroke:none;" d="M76 168L77 169L76 168z"/>
<path style="fill:#696969; stroke:none;" d="M63 169L64 170L63 169z"/>
<path style="fill:#7f7f7f; stroke:none;" d="M78 169L79 170L78 169z"/>
<path style="fill:#9e9e9e; stroke:none;" d="M80 170L81 171L80 170z"/>
<path style="fill:#9a9a9a; stroke:none;" d="M66 171L67 172L66 171z"/>
<path style="fill:#646464; stroke:none;" d="M81 171L82 172L81 171z"/>
<path style="fill:#7e7e7e; stroke:none;" d="M68 172L69 173L68 172z"/>
<path style="fill:#848484; stroke:none;" d="M82 172L83 173L82 172z"/>
<path style="fill:#7f7f7f; stroke:none;" d="M52 173L53 174L52 173z"/>
<path style="fill:#606060; stroke:none;" d="M70 173L71 174L70 173z"/>
<path style="fill:#2e2e2e; stroke:none;" d="M82 173L82 176C82.6961 174.446 82.6961 174.554 82 173z"/>
<path style="fill:#828282; stroke:none;" d="M203 173L204 174L203 173z"/>
<path style="fill:#9c9c9c; stroke:none;" d="M54 174L55 175L54 174z"/>
<path style="fill:#afafaf; stroke:none;" d="M71 174L72 175L71 174z"/>
<path style="fill:#9f9f9f; stroke:none;" d="M201 174L202 175L201 174z"/>
<path style="fill:#4e4e4e; stroke:none;" d="M55 175L56 176L55 175z"/>
<path style="fill:#939393; stroke:none;" d="M73 175L74 176L73 175z"/>
<path style="fill:#a8a8a8; stroke:none;" d="M43 176L44 177L43 176z"/>
<path style="fill:#686868; stroke:none;" d="M57 176L58 177L57 176z"/>
<path style="fill:#757575; stroke:none;" d="M75 176L76 177L75 176z"/>
<path style="fill:#6b6b6b; stroke:none;" d="M198 176L199 177L198 176z"/>
<path style="fill:#a8a8a8; stroke:none;" d="M212 176L213 177L212 176z"/>
<path style="fill:#7d7d7d; stroke:none;" d="M44 177L45 178L44 177z"/>
<path style="fill:#888888; stroke:none;" d="M59 177L60 178L59 177z"/>
<path style="fill:#262626; stroke:none;" d="M77 177C78.506 177.683 79.3148 177.826 81 178C79.494 177.317 78.6852 177.174 77 177z"/>
<path style="fill:#aeaeae; stroke:none;" d="M81 177L82 178L81 177z"/>
<path style="fill:#888888; stroke:none;" d="M196 177L197 178L196 177z"/>
<path style="fill:#7e7e7e; stroke:none;" d="M211 177L212 178L211 177z"/>
<path style="fill:#b3b3b3; stroke:none;" d="M45 178L46 179L45 178z"/>
<path style="fill:#a3a3a3; stroke:none;" d="M61 178L62 179L61 178z"/>
<path style="fill:#d6d6d6; stroke:none;" d="M78.6667 178.333C78.2222 178.778 79.2778 178.722 79.3333 178.667C79.7778 178.222 78.7222 178.278 78.6667 178.333z"/>
<path style="fill:#a7a7a7; stroke:none;" d="M194 178L195 179L194 178z"/>
<path style="fill:#969696; stroke:none;" d="M47 179L48 180L47 179z"/>
<path style="fill:#545454; stroke:none;" d="M62 179L63 180L62 179z"/>
<path style="fill:#575757; stroke:none;" d="M193 179L194 180L193 179z"/>
<path style="fill:#939393; stroke:none;" d="M208 179L209 180L208 179z"/>
<path style="fill:#787878; stroke:none;" d="M49 180L50 181L49 180z"/>
<path style="fill:#707070; stroke:none;" d="M64 180L65 181L64 180z"/>
<path style="fill:#737373; stroke:none;" d="M191 180L192 181L191 180z"/>
<path style="fill:#757575; stroke:none;" d="M206 180L207 181L206 180z"/>
<path style="fill:#5b5b5b; stroke:none;" d="M51 181L52 182L51 181z"/>
<path style="fill:#8f8f8f; stroke:none;" d="M66 181L67 182L66 181z"/>
<path style="fill:#929292; stroke:none;" d="M189 181L190 182L189 181z"/>
<path style="fill:#585858; stroke:none;" d="M204 181L205 182L204 181z"/>
<path style="fill:#aaaaaa; stroke:none;" d="M52 182L53 183L52 182z"/>
<path style="fill:#aeaeae; stroke:none;" d="M187 182L188 183L187 182z"/>
<path style="fill:#a7a7a7; stroke:none;" d="M203 182L204 183L203 182z"/>
<path style="fill:#8e8e8e; stroke:none;" d="M54 183L55 184L54 183z"/>
<path style="fill:#5c5c5c; stroke:none;" d="M69 183L70 184L69 183z"/>
<path style="fill:#5e5e5e; stroke:none;" d="M186 183L187 184L186 183z"/>
<path style="fill:#8b8b8b; stroke:none;" d="M201 183L202 184L201 183z"/>
<path style="fill:#707070; stroke:none;" d="M56 184L57 185L56 184z"/>
<path style="fill:#797979; stroke:none;" d="M71 184L72 185L71 184z"/>
<path style="fill:#7c7c7c; stroke:none;" d="M184 184L185 185L184 184z"/>
<path style="fill:#6d6d6d; stroke:none;" d="M199 184L200 185L199 184z"/>
<path style="fill:#969696; stroke:none;" d="M73 185L74 186L73 185z"/>
<path style="fill:#9a9a9a; stroke:none;" d="M182 185L183 186L182 185z"/>
<path style="fill:#505050; stroke:none;" d="M197 185L198 186L197 185z"/>
<path style="fill:#a3a3a3; stroke:none;" d="M59 186L60 187L59 186z"/>
<path style="fill:#b5b5b5; stroke:none;" d="M180 186L181 187L180 186z"/>
<path style="fill:#9f9f9f; stroke:none;" d="M196 186L197 187L196 186z"/>
<path style="fill:#878787; stroke:none;" d="M61 187L62 188L61 187z"/>
<path style="fill:#636363; stroke:none;" d="M76 187L77 188L76 187z"/>
<path style="fill:#666666; stroke:none;" d="M179 187L180 188L179 187z"/>
<path style="fill:#838383; stroke:none;" d="M194 187L195 188L194 187z"/>
<path style="fill:#696969; stroke:none;" d="M63 188L64 189L63 188z"/>
<path style="fill:#7f7f7f; stroke:none;" d="M78 188L79 189L78 188z"/>
<path style="fill:#838383; stroke:none;" d="M177 188L178 189L177 188z"/>
<path style="fill:#666666; stroke:none;" d="M192 188L193 189L192 188z"/>
<path style="fill:#9e9e9e; stroke:none;" d="M80 189L81 190L80 189z"/>
<path style="fill:#a1a1a1; stroke:none;" d="M175 189L176 190L175 189z"/>
<path style="fill:#494949; stroke:none;" d="M190 189L191 190L190 189z"/>
<path style="fill:#9c9c9c; stroke:none;" d="M66 190L67 191L66 190z"/>
<path style="fill:#4f4f4f; stroke:none;" d="M81 190L82 191L81 190z"/>
<path style="fill:#989898; stroke:none;" d="M189 190L190 191L189 190z"/>
<path style="fill:#7e7e7e; stroke:none;" d="M68 191L69 192L68 191z"/>
<path style="fill:#6a6a6a; stroke:none;" d="M83 191L84 192L83 191z"/>
<path style="fill:#6e6e6e; stroke:none;" d="M172 191L173 192L172 191z"/>
<path style="fill:#7b7b7b; stroke:none;" d="M187 191L188 192L187 191z"/>
<path style="fill:#616161; stroke:none;" d="M70 192L71 193L70 192z"/>
<path style="fill:#888888; stroke:none;" d="M85 192L86 193L85 192z"/>
<path style="fill:#8c8c8c; stroke:none;" d="M170 192L171 193L170 192z"/>
<path style="fill:#5d5d5d; stroke:none;" d="M185 192L186 193L185 192z"/>
<path style="fill:#b0b0b0; stroke:none;" d="M71 193L72 194L71 193z"/>
<path style="fill:#a5a5a5; stroke:none;" d="M87 193L88 194L87 193z"/>
<path style="fill:#a9a9a9; stroke:none;" d="M168 193L169 194L168 193z"/>
<path style="fill:#949494; stroke:none;" d="M73 194L74 195L73 194z"/>
<path style="fill:#565656; stroke:none;" d="M88 194L89 195L88 194z"/>
<path style="fill:#595959; stroke:none;" d="M167 194L168 195L167 194z"/>
<path style="fill:#909090; stroke:none;" d="M182 194L183 195L182 194z"/>
<path style="fill:#767676; stroke:none;" d="M75 195L76 196L75 195z"/>
<path style="fill:#737373; stroke:none;" d="M90 195L91 196L90 195z"/>
<path style="fill:#767676; stroke:none;" d="M165 195L166 196L165 195z"/>
<path style="fill:#737373; stroke:none;" d="M180 195L181 196L180 195z"/>
<path style="fill:#595959; stroke:none;" d="M77 196L78 197L77 196z"/>
<path style="fill:#909090; stroke:none;" d="M92 196L93 197L92 196z"/>
<path style="fill:#949494; stroke:none;" d="M163 196L164 197L163 196z"/>
<path style="fill:#565656; stroke:none;" d="M178 196L179 197L178 196z"/>
<path style="fill:#a8a8a8; stroke:none;" d="M78 197L79 198L78 197z"/>
<path style="fill:#b0b0b0; stroke:none;" d="M161 197L162 198L161 197z"/>
<path style="fill:#a5a5a5; stroke:none;" d="M177 197L178 198L177 197z"/>
<path style="fill:#8d8d8d; stroke:none;" d="M80 198L81 199L80 198z"/>
<path style="fill:#5e5e5e; stroke:none;" d="M95 198L96 199L95 198z"/>
<path style="fill:#616161; stroke:none;" d="M160 198L161 199L160 198z"/>
<path style="fill:#898989; stroke:none;" d="M175 198L176 199L175 198z"/>
<path style="fill:#6f6f6f; stroke:none;" d="M82 199L83 200L82 199z"/>
<path style="fill:#797979; stroke:none;" d="M97 199L98 200L97 199z"/>
<path style="fill:#7d7d7d; stroke:none;" d="M158 199L159 200L158 199z"/>
<path style="fill:#6b6b6b; stroke:none;" d="M173 199L174 200L173 199z"/>
<path style="fill:#989898; stroke:none;" d="M99 200L100 201L99 200z"/>
<path style="fill:#9b9b9b; stroke:none;" d="M156 200L157 201L156 200z"/>
<path style="fill:#4f4f4f; stroke:none;" d="M171 200L172 201L171 200z"/>
<path style="fill:#a1a1a1; stroke:none;" d="M85 201L86 202L85 201z"/>
<path style="fill:#494949; stroke:none;" d="M100 201L101 202L100 201z"/>
<path style="fill:#b6b6b6; stroke:none;" d="M154 201L155 202L154 201z"/>
<path style="fill:#9e9e9e; stroke:none;" d="M170 201L171 202L170 201z"/>
<path style="fill:#848484; stroke:none;" d="M87 202L88 203L87 202z"/>
<path style="fill:#646464; stroke:none;" d="M102 202L103 203L102 202z"/>
<path style="fill:#686868; stroke:none;" d="M153 202L154 203L153 202z"/>
<path style="fill:#818181; stroke:none;" d="M168 202L169 203L168 202z"/>
<path style="fill:#676767; stroke:none;" d="M89 203L90 204L89 203z"/>
<path style="fill:#838383; stroke:none;" d="M104 203L105 204L104 203z"/>
<path style="fill:#868686; stroke:none;" d="M151 203L152 204L151 203z"/>
<path style="fill:#636363; stroke:none;" d="M166 203L167 204L166 203z"/>
<path style="fill:#b5b5b5; stroke:none;" d="M90 204L91 205L90 204z"/>
<path style="fill:#a0a0a0; stroke:none;" d="M106 204L107 205L106 204z"/>
<path style="fill:#a3a3a3; stroke:none;" d="M149 204L150 205L149 204z"/>
<path style="fill:#999999; stroke:none;" d="M92 205L93 206L92 205z"/>
<path style="fill:#515151; stroke:none;" d="M107 205L108 206L107 205z"/>
<path style="fill:#969696; stroke:none;" d="M163 205L164 206L163 205z"/>
<path style="fill:#7c7c7c; stroke:none;" d="M94 206L95 207L94 206z"/>
<path style="fill:#6d6d6d; stroke:none;" d="M109 206L110 207L109 206z"/>
<path style="fill:#717171; stroke:none;" d="M146 206L147 207L146 206z"/>
<path style="fill:#787878; stroke:none;" d="M161 206L162 207L161 206z"/>
<path style="fill:#5e5e5e; stroke:none;" d="M96 207L97 208L96 207z"/>
<path style="fill:#8b8b8b; stroke:none;" d="M111 207L112 208L111 207z"/>
<path style="fill:#8e8e8e; stroke:none;" d="M144 207L145 208L144 207z"/>
<path style="fill:#5b5b5b; stroke:none;" d="M159 207L160 208L159 207z"/>
<path style="fill:#aeaeae; stroke:none;" d="M97 208L98 209L97 208z"/>
<path style="fill:#a8a8a8; stroke:none;" d="M113 208L114 209L113 208z"/>
<path style="fill:#ababab; stroke:none;" d="M142 208L143 209L142 208z"/>
<path style="fill:#919191; stroke:none;" d="M99 209L100 210L99 209z"/>
<path style="fill:#585858; stroke:none;" d="M114 209L115 210L114 209z"/>
<path style="fill:#5c5c5c; stroke:none;" d="M141 209L142 210L141 209z"/>
<path style="fill:#8e8e8e; stroke:none;" d="M156 209L157 210L156 209z"/>
<path style="fill:#757575; stroke:none;" d="M101 210L102 211L101 210z"/>
<path style="fill:#747474; stroke:none;" d="M116 210L117 211L116 210z"/>
<path style="fill:#777777; stroke:none;" d="M139 210L140 211L139 210z"/>
<path style="fill:#717171; stroke:none;" d="M154 210L155 211L154 210z"/>
<path style="fill:#575757; stroke:none;" d="M103 211L104 212L103 211z"/>
<path style="fill:#929292; stroke:none;" d="M118 211L119 212L118 211z"/>
<path style="fill:#959595; stroke:none;" d="M137 211L138 212L137 211z"/>
<path style="fill:#545454; stroke:none;" d="M152 211L153 212L152 211z"/>
<path style="fill:#a7a7a7; stroke:none;" d="M104 212L105 213L104 212z"/>
<path style="fill:#b1b1b1; stroke:none;" d="M135 212L136 213L135 212z"/>
<path style="fill:#a4a4a4; stroke:none;" d="M151 212L152 213L151 212z"/>
<path style="fill:#8a8a8a; stroke:none;" d="M106 213L107 214L106 213z"/>
<path style="fill:#5f5f5f; stroke:none;" d="M121 213L122 214L121 213z"/>
<path style="fill:#636363; stroke:none;" d="M134 213L135 214L134 213z"/>
<path style="fill:#878787; stroke:none;" d="M149 213L150 214L149 213z"/>
<path style="fill:#6c6c6c; stroke:none;" d="M108 214L109 215L108 214z"/>
<path style="fill:#6a6a6a; stroke:none;" d="M147 214L148 215L147 214z"/>
<path style="fill:#4d4d4d; stroke:none;" d="M145 215L146 216L145 215z"/>
<path style="fill:#9f9f9f; stroke:none;" d="M111 216L112 217L111 216z"/>
<path style="fill:#9c9c9c; stroke:none;" d="M144 216L145 217L144 216z"/>
<path style="fill:#828282; stroke:none;" d="M113 217L114 218L113 217z"/>
<path style="fill:#7e7e7e; stroke:none;" d="M142 217L143 218L142 217z"/>
<path style="fill:#646464; stroke:none;" d="M115 218L116 219L115 218z"/>
<path style="fill:#616161; stroke:none;" d="M140 218L141 219L140 218z"/>
<path style="fill:#b3b3b3; stroke:none;" d="M116 219L117 220L116 219z"/>
<path style="fill:#979797; stroke:none;" d="M118 220L119 221L118 220z"/>
<path style="fill:#939393; stroke:none;" d="M137 220L138 221L137 220z"/>
<path style="fill:#7a7a7a; stroke:none;" d="M120 221L121 222L120 221z"/>
<path style="fill:#777777; stroke:none;" d="M135 221L136 222L135 221z"/>
<path style="fill:#5d5d5d; stroke:none;" d="M122 222L123 223L122 222z"/>
<path style="fill:#5a5a5a; stroke:none;" d="M133 222L134 223L133 222z"/>
<path style="fill:#acacac; stroke:none;" d="M123 223L124 224L123 223z"/>
<path style="fill:#a9a9a9; stroke:none;" d="M132 223L133 224L132 223z"/>
<path style="fill:#8f8f8f; stroke:none;" d="M125 224L126 225L125 224z"/>
<path style="fill:#8d8d8d; stroke:none;" d="M130 224L131 225L130 224z"/>
<path style="fill:#bfbfbf; stroke:none;" d="M127.667 225.333C127.222 225.778 128.278 225.722 128.333 225.667C128.778 225.222 127.722 225.278 127.667 225.333z"/>
</svg>
